<svg width="19" height="18" viewBox="0 0 19 18" fill="none" xmlns="http://www.w3.org/2000/svg">
<mask id="mask0_239_701" style="mask-type:alpha" maskUnits="userSpaceOnUse" x="0" y="0" width="19" height="18">
<rect width="19" height="18" fill="#D9D9D9"/>
</mask>
<g mask="url(#mask0_239_701)">
<path d="M15.9521 9.75H6.33333V8.25H15.9521L14.725 7.0875L15.8333 6L19 9L15.8333 12L14.725 10.9125L15.9521 9.75ZM11.875 6.75V3.75H3.95833V14.25H11.875V11.25H13.4583V14.25C13.4583 14.6625 13.3033 15.0156 12.9932 15.3094C12.6832 15.6031 12.3104 15.75 11.875 15.75H3.95833C3.52292 15.75 3.15017 15.6031 2.8401 15.3094C2.53003 15.0156 2.375 14.6625 2.375 14.25V3.75C2.375 3.3375 2.53003 2.98438 2.8401 2.69063C3.15017 2.39688 3.52292 2.25 3.95833 2.25H11.875C12.3104 2.25 12.6832 2.39688 12.9932 2.69063C13.3033 2.98438 13.4583 3.3375 13.4583 3.75V6.75H11.875Z" fill="#FEEDBF"/>
</g>
</svg>
