<svg width="166" height="213" viewBox="0 0 166 213" fill="none" xmlns="http://www.w3.org/2000/svg">
<path d="M35 25.6139H50V209H35V25.6139Z" fill="#FBFBE2"/>
<path d="M65 25.6139H80V209H65V25.6139Z" fill="#FBFBE2"/>
<path d="M50 25.6139H65V209H50V25.6139Z" fill="#FBFBE2"/>
<path fill-rule="evenodd" clip-rule="evenodd" d="M80 25.6139C80 25.6139 96.905 24.3779 111.324 27.1706C130.715 31.6074 158.835 38.6191 160.824 76.578C162.167 102.213 138.48 114.404 135 116.376C135 116.376 162.5 126.633 162.5 159.663C162.5 204.135 111.324 209 111.324 209L80 209V25.6139ZM138.126 76.8832C138.126 42.868 96.905 46.0936 96.905 46.0936L96.8575 109.284C96.8575 109.284 138.126 110.898 138.126 76.8832ZM138.173 155.266C138.173 121.251 96.905 126.15 96.905 126.15V186.659C96.905 186.659 138.173 189.281 138.173 155.266Z" fill="#FBFBE2"/>
<path d="M50 25.6139H35V209H50M50 25.6139V209M50 25.6139H65M50 209H65M65 25.6139H80M65 25.6139V209M80 25.6139V209M80 25.6139C80 25.6139 96.905 24.3779 111.324 27.1706C130.715 31.6074 158.835 38.6191 160.824 76.578C162.167 102.213 138.48 114.404 135 116.376C135 116.376 162.5 126.633 162.5 159.663C162.5 204.135 111.324 209 111.324 209L80 209M80 209H65M96.905 46.0936C96.905 46.0936 138.126 42.868 138.126 76.8832C138.126 110.898 96.8575 109.284 96.8575 109.284L96.905 46.0936ZM96.905 126.15C96.905 126.15 138.173 121.251 138.173 155.266C138.173 189.281 96.905 186.659 96.905 186.659V126.15Z" stroke="black" stroke-width="7"/>
<path d="M33.5 67.2317V42.0975H42.5V67.2317L52 75.6097H24L33.5 67.2317Z" fill="#FBFBE2" stroke="black" stroke-width="5"/>
<path d="M63 15.1016H12C12 15.1016 12 42.0975 37.8228 42.0975C63 42.0975 63 15.1016 63 15.1016Z" fill="#FBFBE2" stroke="black" stroke-width="5"/>
<path d="M25.9975 25.0487H48.0471C47.8462 25.7004 47.5597 26.4108 47.1527 27.1129C45.9157 29.2465 43.3672 31.6849 37.5 31.6849C31.0531 31.6849 28.2595 29.1716 26.9343 27.0448C26.5108 26.365 26.2102 25.6791 25.9975 25.0487Z" fill="black" stroke="black" stroke-width="5"/>
<path d="M23 12.3089C23 17.4501 18.5228 21.6179 13 21.6179C7.47715 21.6179 3 17.4501 3 12.3089C3 7.16775 7.47715 3 13 3C18.5228 3 23 7.16775 23 12.3089Z" fill="#FBFBE2" stroke="black" stroke-width="5"/>
<path d="M13.5 12.3089C13.5 12.3293 13.4958 12.3812 13.4179 12.4538C13.3369 12.5291 13.1953 12.6016 13 12.6016C12.8047 12.6016 12.6631 12.5291 12.5821 12.4538C12.5042 12.3812 12.5 12.3293 12.5 12.3089C12.5 12.2885 12.5042 12.2366 12.5821 12.1641C12.6631 12.0887 12.8047 12.0162 13 12.0162C13.1953 12.0162 13.3369 12.0887 13.4179 12.1641C13.4958 12.2366 13.5 12.2885 13.5 12.3089Z" fill="black" stroke="black" stroke-width="5"/>
</svg>
