<svg width="46" height="55" viewBox="0 0 46 55" fill="none" xmlns="http://www.w3.org/2000/svg">
<path d="M23.5496 46.2766V29.3423H29.6135V46.2766L36.0142 51.9214H17.1489L23.5496 46.2766Z" fill="#FBFBE2" stroke="black" stroke-width="5"/>
<path d="M43.4257 11.1536H9.06396C9.06396 11.1536 9.06396 29.3423 26.4623 29.3423C43.4257 29.3423 43.4257 11.1536 43.4257 11.1536Z" fill="#FBFBE2" stroke="black" stroke-width="5"/>
<path d="M19.7586 18.6711H32.135C32.1054 18.7266 32.0746 18.782 32.0426 18.8372C31.3558 20.0218 29.9083 21.5111 26.2446 21.5111C22.163 21.5111 20.5519 19.9468 19.8181 18.7691C19.7978 18.7365 19.778 18.7038 19.7586 18.6711Z" fill="black" stroke="black" stroke-width="5"/>
<path d="M16.4752 9.27198C16.4752 12.7359 13.4587 15.544 9.73759 15.544C6.01652 15.544 3 12.7359 3 9.27198C3 5.80806 6.01652 3 9.73759 3C13.4587 3 16.4752 5.80806 16.4752 9.27198Z" fill="#FBFBE2" stroke="black" stroke-width="5"/>
<path d="M9.25886 9.27197C9.25886 9.04076 9.36424 8.86494 9.46344 8.7726C9.55958 8.6831 9.66263 8.65357 9.73759 8.65357C9.81254 8.65357 9.91559 8.6831 10.0117 8.7726C10.1109 8.86494 10.2163 9.04076 10.2163 9.27197C10.2163 9.50319 10.1109 9.679 10.0117 9.77135C9.91559 9.86085 9.81254 9.89038 9.73759 9.89038C9.66263 9.89038 9.55958 9.86085 9.46344 9.77135C9.36424 9.679 9.25886 9.50319 9.25886 9.27197Z" fill="black" stroke="black" stroke-width="5"/>
</svg>
